REM DIRINDEX 1\2,1\3,1\4,1\5\6,1\5\7,1\5\8
REM DIRNAME "folder01","folder02","folder03","folder04","folder05","folder06","folder07","folder08"
TITLE ""
FILE "51.mp3" MP3
  TRACK 01 AUDIO
    TITLE "0:"
    INDEX 01 00:00:00
  TRACK 02 AUDIO
    TITLE "8:cjc162_0950"
    INDEX 01 00:00:20
  TRACK 03 AUDIO
    TITLE "0:"
    INDEX 01 00:01:61
  TRACK 04 AUDIO
    TITLE "8:cjc162_0951"
    INDEX 01 00:02:27
  TRACK 05 AUDIO
    TITLE "0:"
    INDEX 01 00:03:56
  TRACK 06 AUDIO
    TITLE "6:cjc162_0952"
    INDEX 01 00:04:20
  TRACK 07 AUDIO
    TITLE "0:"
    INDEX 01 00:07:48
  TRACK 08 AUDIO
    TITLE "7:cjc162_0953"
    INDEX 01 00:08:12
  TRACK 09 AUDIO
    TITLE "0:"
    INDEX 01 00:10:07
  TRACK 10 AUDIO
    TITLE "8:cjc162_0954"
    INDEX 01 00:10:62
  TRACK 11 AUDIO
    TITLE "0:"
    INDEX 01 00:12:12
  TRACK 12 AUDIO
    TITLE "6:cjc162_0955"
    INDEX 01 00:12:49
  TRACK 13 AUDIO
    TITLE "0:"
    INDEX 01 00:17:01
  TRACK 14 AUDIO
    TITLE "7:cjc162_0956"
    INDEX 01 00:17:42
  TRACK 15 AUDIO
    TITLE "0:"
    INDEX 01 00:20:21
  TRACK 16 AUDIO
    TITLE "8:cjc162_0957"
    INDEX 01 00:20:74
  TRACK 17 AUDIO
    TITLE "0:"
    INDEX 01 00:22:33
  TRACK 18 AUDIO
    TITLE "6:cjc162_0958"
    INDEX 01 00:23:09
  TRACK 19 AUDIO
    TITLE "0:"
    INDEX 01 00:27:11
  TRACK 20 AUDIO
    TITLE "7:cjc162_0959"
    INDEX 01 00:27:54
  TRACK 21 AUDIO
    TITLE "0:"
    INDEX 01 00:30:21
  TRACK 22 AUDIO
    TITLE "8:cjc162_0960"
    INDEX 01 00:30:74
  TRACK 23 AUDIO
    TITLE "0:"
    INDEX 01 00:32:24
  TRACK 24 AUDIO
    TITLE "6:cjc162_0961"
    INDEX 01 00:32:63
  TRACK 25 AUDIO
    TITLE "0:"
    INDEX 01 00:35:46
  TRACK 26 AUDIO
    TITLE "7:cjc162_0962"
    INDEX 01 00:36:10
  TRACK 27 AUDIO
    TITLE "0:"
    INDEX 01 00:37:62
  TRACK 28 AUDIO
    TITLE "8:cjc162_0963"
    INDEX 01 00:38:40
  TRACK 29 AUDIO
    TITLE "0:"
    INDEX 01 00:40:04
  TRACK 30 AUDIO
    TITLE "6:cjc162_0964"
    INDEX 01 00:40:43
  TRACK 31 AUDIO
    TITLE "0:"
    INDEX 01 00:43:02
  TRACK 32 AUDIO
    TITLE "7:cjc162_0965"
    INDEX 01 00:43:41
  TRACK 33 AUDIO
    TITLE "0:"
    INDEX 01 00:45:29
  TRACK 34 AUDIO
    TITLE "8:cjc162_0966"
    INDEX 01 00:46:08
  TRACK 35 AUDIO
    TITLE "0:"
    INDEX 01 00:47:37
  TRACK 36 AUDIO
    TITLE "6:cjc162_0967"
    INDEX 01 00:47:73
  TRACK 37 AUDIO
    TITLE "0:"
    INDEX 01 00:50:14
  TRACK 38 AUDIO
    TITLE "7:cjc162_0968"
    INDEX 01 00:50:55
  TRACK 39 AUDIO
    TITLE "0:"
    INDEX 01 00:52:29
  TRACK 40 AUDIO
    TITLE "8:cjc162_0969"
    INDEX 01 00:53:10
  TRACK 41 AUDIO
    TITLE "0:"
    INDEX 01 00:54:47
  TRACK 42 AUDIO
    TITLE "6:cjc162_0970"
    INDEX 01 00:55:13
  TRACK 43 AUDIO
    TITLE "0:"
    INDEX 01 00:57:12
  TRACK 44 AUDIO
    TITLE "7:cjc162_0971"
    INDEX 01 00:57:51
  TRACK 45 AUDIO
    TITLE "0:"
    INDEX 01 00:59:23
  TRACK 46 AUDIO
    TITLE "8:cjc162_0972"
    INDEX 01 01:00:03
  TRACK 47 AUDIO
    TITLE "0:"
    INDEX 01 01:01:26
  TRACK 48 AUDIO
    TITLE "6:cjc162_0973"
    INDEX 01 01:01:61
  TRACK 49 AUDIO
    TITLE "0:"
    INDEX 01 01:04:02
  TRACK 50 AUDIO
    TITLE "7:cjc162_0974"
    INDEX 01 01:04:42
  TRACK 51 AUDIO
    TITLE "0:"
    INDEX 01 01:06:13
  TRACK 52 AUDIO
    TITLE "8:cjc162_0975"
    INDEX 01 01:06:68
  TRACK 53 AUDIO
    TITLE "0:"
    INDEX 01 01:08:30
  TRACK 54 AUDIO
    TITLE "6:cjc162_0976"
    INDEX 01 01:08:67
  TRACK 55 AUDIO
    TITLE "0:"
    INDEX 01 01:13:50
  TRACK 56 AUDIO
    TITLE "7:cjc162_0977"
    INDEX 01 01:14:11
  TRACK 57 AUDIO
    TITLE "0:"
    INDEX 01 01:16:51
  TRACK 58 AUDIO
    TITLE "8:cjc162_0978"
    INDEX 01 01:17:27
  TRACK 59 AUDIO
    TITLE "0:"
    INDEX 01 01:18:54
  TRACK 60 AUDIO
    TITLE "6:cjc162_0979"
    INDEX 01 01:19:10
  TRACK 61 AUDIO
    TITLE "0:"
    INDEX 01 01:22:57
  TRACK 62 AUDIO
    TITLE "7:cjc162_0980"
    INDEX 01 01:23:19
  TRACK 63 AUDIO
    TITLE "0:"
    INDEX 01 01:25:58
  TRACK 64 AUDIO
    TITLE "8:cjc162_0981"
    INDEX 01 01:26:31
  TRACK 65 AUDIO
    TITLE "0:"
    INDEX 01 01:28:01
  TRACK 66 AUDIO
    TITLE "6:cjc162_0982"
    INDEX 01 01:28:40
  TRACK 67 AUDIO
    TITLE "0:"
    INDEX 01 01:31:05
  TRACK 68 AUDIO
    TITLE "7:cjc162_0983"
    INDEX 01 01:31:44
  TRACK 69 AUDIO
    TITLE "0:"
    INDEX 01 01:33:35
  TRACK 70 AUDIO
    TITLE "8:cjc162_0984"
    INDEX 01 01:34:13
  TRACK 71 AUDIO
    TITLE "0:"
    INDEX 01 01:35:34
  TRACK 72 AUDIO
    TITLE "6:cjc162_0985"
    INDEX 01 01:36:01
  TRACK 73 AUDIO
    TITLE "0:"
    INDEX 01 01:38:70
  TRACK 74 AUDIO
    TITLE "7:cjc162_0986"
    INDEX 01 01:39:30
  TRACK 75 AUDIO
    TITLE "0:"
    INDEX 01 01:41:11
  TRACK 76 AUDIO
    TITLE "8:cjc162_0987"
    INDEX 01 01:41:64
  TRACK 77 AUDIO
    TITLE "0:"
    INDEX 01 01:43:52
  TRACK 78 AUDIO
    TITLE "6:cjc162_0988"
    INDEX 01 01:44:12
  TRACK 79 AUDIO
    TITLE "0:"
    INDEX 01 01:46:50
  TRACK 80 AUDIO
    TITLE "7:cjc162_0989"
    INDEX 01 01:47:12
  TRACK 81 AUDIO
    TITLE "0:"
    INDEX 01 01:48:55
  TRACK 82 AUDIO
    TITLE "8:cjc162_0990"
    INDEX 01 01:49:34
  TRACK 83 AUDIO
    TITLE "0:"
    INDEX 01 01:51:04
  TRACK 84 AUDIO
    TITLE "6:cjc162_0991"
    INDEX 01 01:51:41
  TRACK 85 AUDIO
    TITLE "0:"
    INDEX 01 01:55:59
  TRACK 86 AUDIO
    TITLE "7:cjc162_0992"
    INDEX 01 01:56:23
  TRACK 87 AUDIO
    TITLE "0:"
    INDEX 01 01:58:65
  TRACK 88 AUDIO
    TITLE "8:cjc162_0993"
    INDEX 01 01:59:47
  TRACK 89 AUDIO
    TITLE "0:"
    INDEX 01 02:01:26
  TRACK 90 AUDIO
    TITLE "6:cjc162_0994"
    INDEX 01 02:01:63
  TRACK 91 AUDIO
    TITLE "0:"
    INDEX 01 02:05:49
  TRACK 92 AUDIO
    TITLE "7:cjc162_0995"
    INDEX 01 02:06:11
  TRACK 93 AUDIO
    TITLE "0:"
    INDEX 01 02:08:42
  TRACK 94 AUDIO
    TITLE "8:cjc162_0996"
    INDEX 01 02:09:23
  TRACK 95 AUDIO
    TITLE "0:"
    INDEX 01 02:11:01
  TRACK 96 AUDIO
    TITLE "6:cjc162_0997"
    INDEX 01 02:11:32
  TRACK 97 AUDIO
    TITLE "0:"
    INDEX 01 02:16:10
  TRACK 98 AUDIO
    TITLE "7:cjc162_0998"
    INDEX 01 02:16:47
  TRACK 99 AUDIO
    TITLE "0:"
    INDEX 01 02:19:08
  TRACK 100 AUDIO
    TITLE "8:cjc162_0999"
    INDEX 01 02:19:61
  TRACK 101 AUDIO
    TITLE "0:"
    INDEX 01 02:21:42
  TRACK 102 AUDIO
    TITLE "6:cjc162_1000"
    INDEX 01 02:22:07
  TRACK 103 AUDIO
    TITLE "0:"
    INDEX 01 02:27:02
  TRACK 104 AUDIO
    TITLE "7:cjc162_1001"
    INDEX 01 02:27:41
  TRACK 105 AUDIO
    TITLE "0:"
    INDEX 01 02:30:59
  TRACK 106 AUDIO
    TITLE "8:cjc162_1002"
    INDEX 01 02:31:39
  TRACK 107 AUDIO
    TITLE "0:"
    INDEX 01 02:33:08
  TRACK 108 AUDIO
    TITLE "6:cjc162_1003"
    INDEX 01 02:33:45
  TRACK 109 AUDIO
    TITLE "0:"
    INDEX 01 02:38:60
  TRACK 110 AUDIO
    TITLE "7:cjc162_1004"
    INDEX 01 02:39:27
  TRACK 111 AUDIO
    TITLE "0:"
    INDEX 01 02:41:63
  TRACK 112 AUDIO
    TITLE "8:cjc162_1005"
    INDEX 01 02:42:44
  TRACK 113 AUDIO
    TITLE "0:"
    INDEX 01 02:44:26
  TRACK 114 AUDIO
    TITLE "6:cjc162_1006"
    INDEX 01 02:44:65
  TRACK 115 AUDIO
    TITLE "0:"
    INDEX 01 02:47:63
  TRACK 116 AUDIO
    TITLE "7:cjc162_1007"
    INDEX 01 02:48:25
  TRACK 117 AUDIO
    TITLE "0:"
    INDEX 01 02:50:19
  TRACK 118 AUDIO
    TITLE "8:cjc162_1008"
    INDEX 01 02:50:69
  TRACK 119 AUDIO
    TITLE "0:"
    INDEX 01 02:52:21
  TRACK 120 AUDIO
    TITLE "6:cjc162_1009"
    INDEX 01 02:52:61
  TRACK 121 AUDIO
    TITLE "0:"
    INDEX 01 02:56:56
  TRACK 122 AUDIO
    TITLE "7:cjc162_1010"
    INDEX 01 02:57:22
  TRACK 123 AUDIO
    TITLE "0:"
    INDEX 01 02:59:41
  TRACK 124 AUDIO
    TITLE "8:cjc162_1011"
    INDEX 01 03:00:19
  TRACK 125 AUDIO
    TITLE "0:"
    INDEX 01 03:01:69
  TRACK 126 AUDIO
    TITLE "6:cjc162_1012"
    INDEX 01 03:02:33
  TRACK 127 AUDIO
    TITLE "0:"
    INDEX 01 03:05:16
  TRACK 128 AUDIO
    TITLE "7:cjc162_1013"
    INDEX 01 03:05:57
  TRACK 129 AUDIO
    TITLE "0:"
    INDEX 01 03:07:50
  TRACK 130 AUDIO
    TITLE "8:cjc162_1014"
    INDEX 01 03:08:32
  TRACK 131 AUDIO
    TITLE "0:"
    INDEX 01 03:10:06
  TRACK 132 AUDIO
    TITLE "6:cjc162_1015"
    INDEX 01 03:10:41
  TRACK 133 AUDIO
    TITLE "0:"
    INDEX 01 03:13:47
  TRACK 134 AUDIO
    TITLE "7:cjc162_1016"
    INDEX 01 03:14:11
  TRACK 135 AUDIO
    TITLE "0:"
    INDEX 01 03:15:71
  TRACK 136 AUDIO
    TITLE "8:cjc162_1017"
    INDEX 01 03:16:53
  TRACK 137 AUDIO
    TITLE "0:"
    INDEX 01 03:18:32
  TRACK 138 AUDIO
    TITLE "6:cjc162_1018"
    INDEX 01 03:18:72
  TRACK 139 AUDIO
    TITLE "0:"
    INDEX 01 03:21:74
  TRACK 140 AUDIO
    TITLE "7:cjc162_1019"
    INDEX 01 03:22:38
  TRACK 141 AUDIO
    TITLE "0:"
    INDEX 01 03:24:35
  TRACK 142 AUDIO
    TITLE "8:cjc162_1020"
    INDEX 01 03:25:11
  TRACK 143 AUDIO
    TITLE "0:"
    INDEX 01 03:26:63
  TRACK 144 AUDIO
    TITLE "6:cjc162_1021"
    INDEX 01 03:27:28
  TRACK 145 AUDIO
    TITLE "0:"
    INDEX 01 03:31:61
  TRACK 146 AUDIO
    TITLE "7:cjc162_1022"
    INDEX 01 03:32:23
  TRACK 147 AUDIO
    TITLE "0:"
    INDEX 01 03:34:49
  TRACK 148 AUDIO
    TITLE "8:cjc162_1023"
    INDEX 01 03:35:29
  TRACK 149 AUDIO
    TITLE "0:"
    INDEX 01 03:37:12
  TRACK 150 AUDIO
    TITLE "6:cjc162_1024"
    INDEX 01 03:37:57
  TRACK 151 AUDIO
    TITLE "0:"
    INDEX 01 03:44:65
  TRACK 152 AUDIO
    TITLE "7:cjc162_1025"
    INDEX 01 03:45:29
  TRACK 153 AUDIO
    TITLE "0:"
    INDEX 01 03:49:27
  TRACK 154 AUDIO
    TITLE "8:cjc162_1026"
    INDEX 01 03:50:09
  TRACK 155 AUDIO
    TITLE "0:"
    INDEX 01 03:51:65
  TRACK 156 AUDIO
    TITLE "6:cjc162_1027"
    INDEX 01 03:52:27
  TRACK 157 AUDIO
    TITLE "0:"
    INDEX 01 03:55:51
  TRACK 158 AUDIO
    TITLE "7:cjc162_1028"
    INDEX 01 03:56:15
  TRACK 159 AUDIO
    TITLE "0:"
    INDEX 01 03:58:22
  TRACK 160 AUDIO
    TITLE "8:cjc162_1029"
    INDEX 01 03:59:02
  TRACK 161 AUDIO
    TITLE "0:"
    INDEX 01 04:00:58
  TRACK 162 AUDIO
    TITLE "6:cjc162_1030"
    INDEX 01 04:01:22
  TRACK 163 AUDIO
    TITLE "0:"
    INDEX 01 04:05:75
  TRACK 164 AUDIO
    TITLE "7:cjc162_1031"
    INDEX 01 04:06:39
  TRACK 165 AUDIO
    TITLE "0:"
    INDEX 01 04:09:20
  TRACK 166 AUDIO
    TITLE "8:cjc162_1032"
    INDEX 01 04:09:73
  TRACK 167 AUDIO
    TITLE "0:"
    INDEX 01 04:11:42
  TRACK 168 AUDIO
    TITLE "6:cjc162_1033"
    INDEX 01 04:12:09
  TRACK 169 AUDIO
    TITLE "0:"
    INDEX 01 04:17:41
  TRACK 170 AUDIO
    TITLE "6:cjc162_1034"
    INDEX 01 04:18:13
  TRACK 171 AUDIO
    TITLE "0:"
    INDEX 01 04:20:61
  TRACK 172 AUDIO
    TITLE "7:cjc162_1035"
    INDEX 01 04:21:23
  TRACK 173 AUDIO
    TITLE "0:"
    INDEX 01 04:24:22
  TRACK 174 AUDIO
    TITLE "7:cjc162_1036"
    INDEX 01 04:24:61
  TRACK 175 AUDIO
    TITLE "0:"
    INDEX 01 04:26:50
  TRACK 176 AUDIO
    TITLE "8:cjc162_1037"
    INDEX 01 04:27:30
  TRACK 177 AUDIO
    TITLE "0:"
    INDEX 01 04:29:13
  TRACK 178 AUDIO
    TITLE "6:cjc162_1038"
    INDEX 01 04:29:58
  TRACK 179 AUDIO
    TITLE "0:"
    INDEX 01 04:35:59
  TRACK 180 AUDIO
    TITLE "7:cjc162_1039"
    INDEX 01 04:36:23
  TRACK 181 AUDIO
    TITLE "0:"
    INDEX 01 04:39:74
  TRACK 182 AUDIO
    TITLE "8:cjc162_1040"
    INDEX 01 04:40:54
  TRACK 183 AUDIO
    TITLE "0:"
    INDEX 01 04:42:08
  TRACK 184 AUDIO
    TITLE "6:cjc162_1041"
    INDEX 01 04:42:47
  TRACK 185 AUDIO
    TITLE "0:"
    INDEX 01 04:46:35
  TRACK 186 AUDIO
    TITLE "7:cjc162_1042"
    INDEX 01 04:47:05
  TRACK 187 AUDIO
    TITLE "0:"
    INDEX 01 04:49:12
  TRACK 188 AUDIO
    TITLE "8:cjc162_1043"
    INDEX 01 04:49:69
  TRACK 189 AUDIO
    TITLE "0:"
    INDEX 01 04:51:42
  TRACK 190 AUDIO
    TITLE "6:cjc162_1044"
    INDEX 01 04:52:10
  TRACK 191 AUDIO
    TITLE "0:"
    INDEX 01 04:57:68
  TRACK 192 AUDIO
    TITLE "7:cjc162_1045"
    INDEX 01 04:58:34
  TRACK 193 AUDIO
    TITLE "0:"
    INDEX 01 05:01:52
  TRACK 194 AUDIO
    TITLE "8:cjc162_1046"
    INDEX 01 05:02:34
  TRACK 195 AUDIO
    TITLE "0:"
    INDEX 01 05:04:07
  TRACK 196 AUDIO
    TITLE "6:cjc162_1047"
    INDEX 01 05:04:48
  TRACK 197 AUDIO
    TITLE "0:"
    INDEX 01 05:08:33
  TRACK 198 AUDIO
    TITLE "7:cjc162_1048"
    INDEX 01 05:08:72
  TRACK 199 AUDIO
    TITLE "0:"
    INDEX 01 05:11:35
  TRACK 200 AUDIO
    TITLE "8:cjc162_1049"
    INDEX 01 05:12:21
  TRACK 201 AUDIO
    TITLE "0:"
    INDEX 01 05:13:71
  TRACK 202 AUDIO
    TITLE "6:cjc162_1050"
    INDEX 01 05:14:33
  TRACK 203 AUDIO
    TITLE "0:"
    INDEX 01 05:18:13
  TRACK 204 AUDIO
    TITLE "7:cjc162_1051"
    INDEX 01 05:18:55
  TRACK 205 AUDIO
    TITLE "0:"
    INDEX 01 05:20:63
  TRACK 206 AUDIO
    TITLE "8:cjc162_1052"
    INDEX 01 05:21:47
  TRACK 207 AUDIO
    TITLE "0:"
    INDEX 01 05:23:20
  TRACK 208 AUDIO
    TITLE "6:cjc162_1053"
    INDEX 01 05:23:60
  TRACK 209 AUDIO
    TITLE "0:"
    INDEX 01 05:30:69
  TRACK 210 AUDIO
    TITLE "7:cjc162_1054"
    INDEX 01 05:31:36
  TRACK 211 AUDIO
    TITLE "0:"
    INDEX 01 05:34:52
  TRACK 212 AUDIO
    TITLE "8:cjc162_1055"
    INDEX 01 05:35:33
  TRACK 213 AUDIO
    TITLE "0:"
    INDEX 01 05:37:09
  TRACK 214 AUDIO
    TITLE "6:cjc162_1056"
    INDEX 01 05:37:52
  TRACK 215 AUDIO
    TITLE "0:"
    INDEX 01 05:43:15
  TRACK 216 AUDIO
    TITLE "7:cjc162_1057"
    INDEX 01 05:43:52
  TRACK 217 AUDIO
    TITLE "0:"
    INDEX 01 05:46:39
  TRACK 218 AUDIO
    TITLE "8:cjc162_1058"
    INDEX 01 05:47:17
  TRACK 219 AUDIO
    TITLE "0:"
    INDEX 01 05:48:71
  TRACK 220 AUDIO
    TITLE "6:cjc162_1059"
    INDEX 01 05:49:30
  TRACK 221 AUDIO
    TITLE "0:"
    INDEX 01 05:56:18
  TRACK 222 AUDIO
    TITLE "7:cjc162_1060"
    INDEX 01 05:56:59
  TRACK 223 AUDIO
    TITLE "0:"
    INDEX 01 06:00:20
  TRACK 224 AUDIO
    TITLE "8:cjc162_1061"
    INDEX 01 06:01:03
  TRACK 225 AUDIO
    TITLE "0:"
    INDEX 01 06:02:60
  TRACK 226 AUDIO
    TITLE "6:cjc162_1062"
    INDEX 01 06:03:28
  TRACK 227 AUDIO
    TITLE "0:"
    INDEX 01 06:06:06
  TRACK 228 AUDIO
    TITLE "7:cjc162_1063"
    INDEX 01 06:06:50
  TRACK 229 AUDIO
    TITLE "0:"
    INDEX 01 06:08:27
  TRACK 230 AUDIO
    TITLE "8:cjc162_1064"
    INDEX 01 06:09:05
  TRACK 231 AUDIO
    TITLE "0:"
    INDEX 01 06:10:47
  TRACK 232 AUDIO
    TITLE "6:cjc162_1065"
    INDEX 01 06:11:12
  TRACK 233 AUDIO
    TITLE "0:"
    INDEX 01 06:14:37
  TRACK 234 AUDIO
    TITLE "7:cjc162_1066"
    INDEX 01 06:15:04
  TRACK 235 AUDIO
    TITLE "0:"
    INDEX 01 06:16:72
  TRACK 236 AUDIO
    TITLE "8:cjc162_1067"
    INDEX 01 06:17:55
  TRACK 237 AUDIO
    TITLE "0:"
    INDEX 01 06:19:37
  TRACK 238 AUDIO
    TITLE "6:cjc162_1068"
    INDEX 01 06:19:74
  TRACK 239 AUDIO
    TITLE "0:"
    INDEX 01 06:24:67
  TRACK 240 AUDIO
    TITLE "7:cjc162_1069"
    INDEX 01 06:25:29
  TRACK 241 AUDIO
    TITLE "0:"
    INDEX 01 06:27:75
  TRACK 242 AUDIO
    TITLE "8:cjc162_1070"
    INDEX 01 06:28:53
  TRACK 243 AUDIO
    TITLE "0:"
    INDEX 01 06:30:05
  TRACK 244 AUDIO
    TITLE "6:cjc162_1071"
    INDEX 01 06:30:48
  TRACK 245 AUDIO
    TITLE "0:"
    INDEX 01 06:33:05
  TRACK 246 AUDIO
    TITLE "7:cjc162_1072"
    INDEX 01 06:33:46
  TRACK 247 AUDIO
    TITLE "0:"
    INDEX 01 06:35:10
  TRACK 248 AUDIO
    TITLE "8:cjc162_1073"
    INDEX 01 06:35:67
  TRACK 249 AUDIO
    TITLE "0:"
    INDEX 01 06:37:36
  TRACK 250 AUDIO
    TITLE "6:cjc162_1074"
    INDEX 01 06:38:01
  TRACK 251 AUDIO
    TITLE "0:"
    INDEX 01 06:41:44
  TRACK 252 AUDIO
    TITLE "7:cjc162_1075"
    INDEX 01 06:42:08
  TRACK 253 AUDIO
    TITLE "0:"
    INDEX 01 06:44:21
  TRACK 254 AUDIO
    TITLE "8:cjc162_1076"
    INDEX 01 06:45:01
  TRACK 255 AUDIO
    TITLE "0:"
    INDEX 01 06:46:47
  TRACK 256 AUDIO
    TITLE "6:cjc162_1077"
    INDEX 01 06:47:09
  TRACK 257 AUDIO
    TITLE "0:"
    INDEX 01 06:51:03
  TRACK 258 AUDIO
    TITLE "7:cjc162_1078"
    INDEX 01 06:51:44
  TRACK 259 AUDIO
    TITLE "0:"
    INDEX 01 06:53:33
  TRACK 260 AUDIO
    TITLE "8:cjc162_1079"
    INDEX 01 06:54:13
  TRACK 261 AUDIO
    TITLE "0:"
    INDEX 01 06:55:68
  TRACK 262 AUDIO
    TITLE "6:cjc162_1080"
    INDEX 01 06:56:30
  TRACK 263 AUDIO
    TITLE "0:"
    INDEX 01 06:58:46
  TRACK 264 AUDIO
    TITLE "7:cjc162_1081"
    INDEX 01 06:59:15
  TRACK 265 AUDIO
    TITLE "0:"
    INDEX 01 07:00:45
  TRACK 266 AUDIO
    TITLE "8:cjc162_1082"
    INDEX 01 07:01:23
  TRACK 267 AUDIO
    TITLE "0:"
    INDEX 01 07:03:01
  TRACK 268 AUDIO
    TITLE "6:cjc162_1083"
    INDEX 01 07:03:36
  TRACK 269 AUDIO
    TITLE "0:"
    INDEX 01 07:08:43
  TRACK 270 AUDIO
    TITLE "7:cjc162_1084"
    INDEX 01 07:09:07
  TRACK 271 AUDIO
    TITLE "0:"
    INDEX 01 07:12:05
  TRACK 272 AUDIO
    TITLE "8:cjc162_1085"
    INDEX 01 07:12:60
  TRACK 273 AUDIO
    TITLE "0:"
    INDEX 01 07:14:42
  TRACK 274 AUDIO
    TITLE "6:cjc162_1086"
    INDEX 01 07:15:08
  TRACK 275 AUDIO
    TITLE "0:"
    INDEX 01 07:19:51
  TRACK 276 AUDIO
    TITLE "7:cjc162_1087"
    INDEX 01 07:20:17
  TRACK 277 AUDIO
    TITLE "0:"
    INDEX 01 07:22:33
  TRACK 278 AUDIO
    TITLE "8:cjc162_1088"
    INDEX 01 07:23:13
  TRACK 279 AUDIO
    TITLE "0:"
    INDEX 01 07:24:65
  TRACK 280 AUDIO
    TITLE "6:cjc162_1089"
    INDEX 01 07:25:33
  TRACK 281 AUDIO
    TITLE "0:"
    INDEX 01 07:32:75
  TRACK 282 AUDIO
    TITLE "7:cjc162_1090"
    INDEX 01 07:33:41
  TRACK 283 AUDIO
    TITLE "0:"
    INDEX 01 07:36:61
  TRACK 284 AUDIO
    TITLE "8:cjc162_1091"
    INDEX 01 07:37:41
  TRACK 285 AUDIO
    TITLE "0:"
    INDEX 01 07:39:18
  TRACK 286 AUDIO
    TITLE "6:cjc162_1092"
    INDEX 01 07:39:61
  TRACK 287 AUDIO
    TITLE "0:"
    INDEX 01 07:43:39
  TRACK 288 AUDIO
    TITLE "7:cjc162_1093"
    INDEX 01 07:44:05
  TRACK 289 AUDIO
    TITLE "0:"
    INDEX 01 07:45:70
  TRACK 290 AUDIO
    TITLE "8:cjc162_1094"
    INDEX 01 07:46:45
  TRACK 291 AUDIO
    TITLE "0:"
    INDEX 01 07:48:09
  TRACK 292 AUDIO
    TITLE "6:cjc162_1095"
    INDEX 01 07:48:46
  TRACK 293 AUDIO
    TITLE "0:"
    INDEX 01 07:52:68
  TRACK 294 AUDIO
    TITLE "7:cjc162_1096"
    INDEX 01 07:53:30
  TRACK 295 AUDIO
    TITLE "0:"
    INDEX 01 07:55:64
  TRACK 296 AUDIO
    TITLE "8:cjc162_1097"
    INDEX 01 07:56:42
  TRACK 297 AUDIO
    TITLE "0:"
    INDEX 01 07:58:19
  TRACK 298 AUDIO
    TITLE "6:cjc162_1098"
    INDEX 01 07:58:56
  TRACK 299 AUDIO
    TITLE "0:"
    INDEX 01 08:03:18
  TRACK 300 AUDIO
    TITLE "7:cjc162_1099"
    INDEX 01 08:03:60
  TRACK 301 AUDIO
    TITLE "0:"
    INDEX 01 08:06:05
  TRACK 302 AUDIO
    TITLE "8:cjc162_1100"
    INDEX 01 08:06:58
  TRACK 303 AUDIO
    TITLE "0:"
    INDEX 01 08:08:16
  TRACK 304 AUDIO
    TITLE "6:cjc162_1101"
    INDEX 01 08:08:49
  TRACK 305 AUDIO
    TITLE "0:"
    INDEX 01 08:12:66
  TRACK 306 AUDIO
    TITLE "7:cjc162_1102"
    INDEX 01 08:13:31
  TRACK 307 AUDIO
    TITLE "0:"
    INDEX 01 08:15:71
